<?xml version="1.0" encoding="utf-8"?>
<!-- Svg Vector Icons : http://www.onlinewebfonts.com/icon -->
<!DOCTYPE svg PUBLIC "-//W3C//DTD SVG 1.1//EN" "http://www.w3.org/Graphics/SVG/1.1/DTD/svg11.dtd">
<svg version="1.1" xmlns="http://www.w3.org/2000/svg" xmlns:xlink="http://www.w3.org/1999/xlink" x="0px" y="0px" viewBox="0 0 1000 1000" enable-background="new 0 0 1000 1000" xml:space="preserve">
<metadata> Svg Vector Icons : http://www.onlinewebfonts.com/icon </metadata>
<g><g transform="translate(0.000000,511.000000) scale(0.100000,-0.100000)"><path d="M2357.5,4428.7c-566.8-95.7-1039.8-340.8-1457.2-756.4C94.1,2870-108.9,1784.3,318.1,551.1c72.8-210.6,308.3-710.4,409.8-867.4l59.4-90l990,3.8l991.9,5.7L3002.8,34c128.3,237.4,256.6,450,283.4,474.9c70.9,59.4,166.6,55.5,237.4-9.6c32.6-30.6,160.8-206.8,287.2-396.4c130.2-193.4,235.5-331.3,239.4-316c5.7,15.3,147.5,564.9,316,1223.6c273.8,1070.4,312.1,1200.6,356.2,1240.9c76.6,65.1,170.4,57.4,247-19.1c59.4-63.2,63.2-78.5,411.7-1792.3c218.3-1064.7,360-1717.7,369.6-1700.5c7.6,15.3,128.3,358.1,266.2,760.2c316,924.9,317.9,930.7,367.7,965.1c47.9,32.6,151.3,38.3,204.9,9.6c21.1-11.5,168.5-214.5,329.4-450l291.1-430.9h1001.5h1001.5l59.4,90c105.3,164.7,338.9,662.5,417.5,890.4c250.8,731.5,277.7,1418.9,78.5,2027.9c-319.8,974.7-1177.7,1692.8-2198.3,1838.3c-235.5,32.5-681.7,13.4-882.8-40.2c-331.3-88.1-641.5-239.4-947.9-465.3c-181.9-134-543.8-494.1-653-649.2c-42.1-59.4-80.4-109.1-86.2-109.1c-5.7,0-42.1,44-80.4,99.6C4509.9,3846.6,3812.8,4308.1,3179,4428.7C2991.3,4463.2,2564.3,4465.1,2357.5,4428.7z"/><path d="M4559.7,229.4c-226-886.6-264.3-1014.9-308.3-1060.9c-61.3-63.2-176.2-72.8-239.4-19.2c-23,17.2-158.9,208.7-304.5,425.1c-145.5,216.4-270,400.2-277.7,407.9c-7.7,7.7-95.7-139.8-197.2-327.4c-103.4-187.7-208.7-363.8-235.5-388.8l-49.8-45.9l-955.5-5.7l-957.5-5.8l53.6-70.8C1731.3-1731.5,2683-2623.8,3899-3499c327.5-235.5,1076.2-737.2,1101.1-737.2c23,0,767.9,497.9,1097.2,735.3C7265.4-2664.1,8219-1777.5,8845.2-948.3l118.7,157l-965.1,5.8c-934.5,5.7-967,7.7-1007.2,44c-23,21.1-128.3,164.7-233.6,319.8c-105.3,155.1-199.1,279.6-206.8,273.8c-7.7-3.8-166.6-457.7-354.3-1007.3c-321.7-938.3-344.7-1001.5-400.2-1034c-128.3-78.5-258.5-11.5-296.8,151.3c-11.5,49.8-168.5,804.3-346.6,1677.5c-180,873.2-327.4,1589.4-331.3,1593.2C4820.1,1234.7,4701.4,782.8,4559.7,229.4z"/></g></g>
</svg>