<svg id="Layer_1" data-name="Layer 1" xmlns="http://www.w3.org/2000/svg" viewBox="0 0 500 500"><defs><style>.cls-1{fill:#444;}.cls-2{fill:#ddd;}.cls-3{fill:#b7b7b7;}.cls-4{fill:none;stroke:#000;stroke-linecap:round;stroke-linejoin:round;stroke-width:15px;}.cls-5{fill:#d82f23;}.cls-6{fill:#af0909;}.cls-7{fill:#54c3ef;}</style></defs><title>thermometer</title><path class="cls-1" d="M16.12,431.51H56.83a0,0,0,0,1,0,0v43.68a20.36,20.36,0,0,1-20.36,20.36h0a20.36,20.36,0,0,1-20.36-20.36V431.51a0,0,0,0,1,0,0Z" transform="translate(338.44 109.97) rotate(45)"/><path class="cls-2" d="M469.83,30.17h0a76.09,76.09,0,0,1,0,107.63L333.54,274.09a261.65,261.65,0,0,1-78.49,54l-25.67,11.44A427.94,427.94,0,0,0,101,427.78l-27.5,27.5-14.39-14.4-14.4-14.39L72.22,399a427.94,427.94,0,0,0,88.27-128.37L171.93,245a261.65,261.65,0,0,1,54-78.49L362.2,30.17a76.09,76.09,0,0,1,107.63,0Z"/><path class="cls-3" d="M308.09,248.64a261.66,261.66,0,0,1-78.5,54l-25.66,11.44A427.94,427.94,0,0,0,75.56,402.32l-27.5,27.5,11.06,11.06,14.39,14.4,27.5-27.5a427.94,427.94,0,0,1,128.37-88.27l25.67-11.44a261.65,261.65,0,0,0,78.49-54L460.13,147.5l-25.45-25.45Z"/><path class="cls-4" d="M16.12,431.51H56.83a0,0,0,0,1,0,0v43.68a20.36,20.36,0,0,1-20.36,20.36h0a20.36,20.36,0,0,1-20.36-20.36V431.51a0,0,0,0,1,0,0Z" transform="translate(338.44 109.97) rotate(45)"/><path class="cls-4" d="M469.83,30.17h0a76.09,76.09,0,0,1,0,107.63L333.54,274.09a261.65,261.65,0,0,1-78.49,54l-25.67,11.44A427.94,427.94,0,0,0,101,427.78l-27.5,27.5-14.39-14.4-14.4-14.39L72.22,399a427.94,427.94,0,0,0,88.27-128.37L171.93,245a261.65,261.65,0,0,1,54-78.49L362.2,30.17a76.09,76.09,0,0,1,107.63,0Z"/><path class="cls-5" d="M362.2,30.17l-9.7,9.7L460.13,147.5l9.7-9.7a76.09,76.09,0,0,0,0-107.63h0A76.09,76.09,0,0,0,362.2,30.17Z"/><path class="cls-6" d="M444.38,112.35l-9.7,9.7,25.45,25.45,9.7-9.7a76.09,76.09,0,0,0,0-107.63h0A75.86,75.86,0,0,0,455.58,19,76.15,76.15,0,0,1,444.38,112.35Z"/><path class="cls-4" d="M362.2,30.17l-9.7,9.7L460.13,147.5l9.7-9.7a76.09,76.09,0,0,0,0-107.63h0A76.09,76.09,0,0,0,362.2,30.17Z"/><rect class="cls-7" x="249.1" y="152.5" width="131.94" height="64.85" transform="translate(-38.48 276.95) rotate(-45)"/><rect class="cls-4" x="249.1" y="152.5" width="131.94" height="64.85" transform="translate(-38.48 276.95) rotate(-45)"/></svg>
